<?xml version="1.0" encoding="UTF-8" standalone="no"?>
<!DOCTYPE svg PUBLIC "-//W3C//DTD SVG 1.1//EN" "http://www.w3.org/Graphics/SVG/1.1/DTD/svg11.dtd">
<svg width="100%" height="100%" viewBox="0 0 256 256" version="1.1" xmlns="http://www.w3.org/2000/svg" xml:space="preserve" style="fill-rule:evenodd;clip-rule:evenodd;stroke-linejoin:round;stroke-miterlimit:2;">
    <g>
        <g transform="matrix(0.653189,0,0,0.653189,86.1514,25.8491)">
            <g>
                <path d="M29.4,10.5C28.4,10.9 27.1,11.7 26.4,12.3C23.8,14.7 23.9,13.4 23.9,47.4C23.9,83.1 23.7,81.2 27.6,83.6L29.7,85L85.1,85L85.1,146.8C85.1,212.7 85.1,210.8 87.2,211.6C87.6,211.7 97.8,211.9 109.9,211.9L131.8,211.9L131.8,225.1C131.8,232.4 132,239.1 132.3,239.9C132.9,242 135.8,244.9 137.9,245.5C140.1,246.2 223.8,246.1 226.1,245.5C227.1,245.2 228.5,244.5 229.3,243.8C232.2,241.4 232.1,242.5 232.1,213.2L232.1,186.4L231,184.8C230.4,184 229.2,182.7 228.4,182.2L226.8,181.1L186.9,181.1L176.5,176L166.1,170.8L136.9,171L135.2,172.3C131.9,174.8 131.8,175 131.7,190.5L131.6,204.4L92.5,204.4L92.5,129L94,128.8C95.9,128.4 129.2,128.4 130.6,128.8C131.6,129 131.6,129.1 131.8,142.9L131.9,156.8L133.2,158.7C133.9,159.8 135.3,161 136.5,161.6C138.6,162.6 138.7,162.6 182,162.6C211.5,162.6 225.9,162.5 226.7,162.1C228.3,161.5 230.4,159.5 231.3,157.9C231.9,156.9 232,152.1 232,130.2C232,100.8 232.1,101.8 228.8,99.3L227.2,98L186,97.6L166,87.6L152.3,87.6C139.2,87.6 138.4,87.6 136.5,88.6C135.3,89.2 134,90.4 133.2,91.5L131.9,93.4L131.8,107.4L131.7,121.3L92.5,121.3L92.5,85.1L105.7,85L119,84.9L120.7,83.6C124.2,80.9 124.1,82.4 124.1,52.7L124.1,25.9L122.8,23.9C122.1,22.8 120.7,21.5 119.7,21C118,20.1 117,20.1 98,20.1L78,20.1L58.2,10.1L44.7,10C34.1,9.9 30.8,10 29.4,10.5ZM66.4,22.5L76,27.4L116.6,27.8L116.6,77.2L74,77.5L31.4,77.6L31.4,17.3L56.8,17.5L66.4,22.5ZM174.7,99.9L185,105L224.6,105L224.6,155L139.4,154.8L139.3,125.4C139.3,109.2 139.3,95.7 139.4,95.4C139.5,95 142.5,94.8 152,94.8L164.3,94.8L174.7,99.9ZM174.7,183.5L185.1,188.6L224.7,188.6L224.7,238.6L139.5,238.4L139.3,178.4L164.5,178.4L174.7,183.5Z" style="fill-rule:nonzero;"/>
            </g>
        </g>
        <g id="svgviewer-output.svg" transform="matrix(0.153247,0,0,0.153247,75.2336,157.869)">
            <g transform="matrix(1,0,0,1,-400,-400)">
                <path d="M502.222,88.889L478.889,88.889C466.482,54.832 433.913,32.035 397.667,32.035C361.42,32.035 328.852,54.832 316.444,88.889L297.778,88.889C268.566,89.01 244.565,113.01 244.444,142.222L244.444,222.222L555.556,222.222L555.556,142.222C555.435,113.01 531.434,89.01 502.222,88.889ZM511.111,177.778L288.889,177.778L288.889,138.889C288.889,135.841 291.397,133.333 294.444,133.333L354.222,133.333L356.889,108.667C357.846,100.599 362.323,93.353 369.111,88.889C376.784,83.169 386.104,80.077 395.674,80.077C416.518,80.077 434.698,94.74 439.111,115.111L441.111,133.778L505.556,133.778C508.603,133.778 511.111,136.286 511.111,139.333L511.111,177.778Z" style="fill-rule:nonzero;"/>
                <path d="M738.889,401.333L474,401.333L537.111,338.444C541.294,334.262 543.646,328.582 543.646,322.667C543.646,310.426 533.574,300.354 521.333,300.354C515.418,300.354 509.738,302.706 505.556,306.889L388.889,423.556L505.556,540.222C509.748,544.38 515.429,546.701 521.333,546.667C533.489,546.616 543.464,536.601 543.464,524.445C543.464,518.63 541.181,513.041 537.111,508.889L474,445.778L738.889,445.778C751.08,445.778 761.111,435.746 761.111,423.556C761.111,411.365 751.08,401.333 738.889,401.333Z" style="fill-rule:nonzero;"/>
                <path d="M644.444,355.556L688.889,355.556L688.889,148.444C688.891,148.296 688.892,148.148 688.892,147.999C688.892,127.846 672.376,111.231 652.222,111.111L601.778,111.111L601.778,155.556L644.444,155.556L644.444,355.556Z" style="fill-rule:nonzero;"/>
                <path d="M644.444,688.889L155.556,688.889L155.556,155.556L200,155.556L200,111.111L147.556,111.111C127.403,111.354 110.988,128.069 111.111,148.222L111.111,696C111.109,696.148 111.108,696.297 111.108,696.445C111.108,716.599 127.624,733.213 147.778,733.333L652.444,733.333C672.597,733.091 689.012,716.376 688.889,696.222L688.889,490.222L644.444,490.222L644.444,688.889Z" style="fill-rule:nonzero;"/>
                <rect x="0" y="0" width="800" height="800" style="fill-opacity:0;"/>
            </g>
        </g>
    </g>
</svg>
